<svg height="33" width="34" xmlns="http://www.w3.org/2000/svg"><g fill="none" fill-rule="evenodd"><path d="m.55555556 1h32.50793654v32.5079365h-32.50793654z"/><path d="m16.8095238 9.03463203c1.5034921 0 2.7089947-1.2051948 2.7089947-2.67821067 0-.50886003-.1354497-.9775469-.3928042-1.3792785l-2.3161905-3.97714286-2.3161905 3.97714286c-.2573545.4017316-.3928042.87041847-.3928042 1.3792785 0 1.47301587 1.2190476 2.67821067 2.7089947 2.67821067zm8.1269841 4.01731607h-6.7724867v-2.67821073h-2.7089947v2.67821073h-6.77248682c-2.24846561 0-4.06349206 1.7944011-4.06349206 4.017316v12.051948c0 .736508.60952381 1.3391054 1.35449735 1.3391054h21.67195763c.7449736 0 1.3544974-.6025974 1.3544974-1.3391054v-12.051948c0-2.2229149-1.8150265-4.017316-4.0634921-4.017316zm1.3544974 14.7301587h-18.96296297v-4.017316c1.21904762-.0133911 2.38391534-.495469 3.25079365-1.3524964l1.47640212-1.4328427 1.4493122 1.4328427c1.7743915 1.754228 4.8626455 1.7408369 6.623492 0l1.4628572-1.4328427 1.4493121 1.4328427c.8668783.8570274 2.0317461 1.3391053 3.2507937 1.3524964zm0-6.025974c-.6907937-.0133911-1.3409524-.2678211-1.8285714-.7632901l-2.8850794-2.8522944-2.8986243 2.8522944c-1.0023281.990938-2.7496297.990938-3.7519577 0l-2.8850794-2.8522944-2.89862432 2.8522944c-.47407407.4820779-1.1242328.749899-1.81502645.7632901v-4.6868687c0-.736508.60952381-1.3391054 1.35449735-1.3391054h16.25396822c.7449736 0 1.3544974.6025974 1.3544974 1.3391054z" fill="#000" fill-rule="nonzero"/></g></svg>