<svg width="33" height="33" xmlns="http://www.w3.org/2000/svg"><g fill="none" fill-rule="evenodd"><path d="M.19047619.49206349h32.5079365v32.5079365H.19047619z"/><g transform="translate(3.238095 3.539683)" fill="#000" fill-rule="nonzero"><circle cx="17.8285714" cy="9.9047619" r="1.98095238"/><circle cx="8.58412698" cy="9.9047619" r="1.98095238"/><path d="M13.2063492 21.1301587c3.0110476 0 5.5730794-2.1922539 6.6031746-5.2825397H6.6031746c1.03009524 3.0902858 3.592127 5.2825397 6.6031746 5.2825397z"/><path d="M13.1931429 0C5.9032381 0 0 5.91644444 0 13.2063492c0 7.2899048 5.9032381 13.2063492 13.1931429 13.2063492 7.3031111 0 13.2195555-5.9164444 13.2195555-13.2063492C26.4126984 5.91644444 20.496254 0 13.1931429 0zm.0132063 23.7714286c-5.83720634 0-10.56507936-4.727873-10.56507936-10.5650794 0-5.83720634 4.72787302-10.56507936 10.56507936-10.56507936 5.8372064 0 10.5650794 4.72787302 10.5650794 10.56507936 0 5.8372064-4.727873 10.5650794-10.5650794 10.5650794z"/></g></g></svg>