<svg height="33" width="33" xmlns="http://www.w3.org/2000/svg"><g fill="none" fill-rule="evenodd"><path d="m.3015873.49206349h32.5079365v32.5079365h-32.5079365z"/><path d="m25.4593838 11.3280423c-.2234921 0-.4469842.02709-.6573296.0677249v-4.80846561c0-1.86920635-1.4724183-3.38624339-3.286648-3.38624339-.2497853 0-.4864239.02708995-.709916.08126984-.2760784-1.5847619-1.6170308-2.79026455-3.2340616-2.79026455-1.3935388 0-2.5767321.89396826-3.063156 2.1536508-.2760784-.08126985-.57845-.12190477-.8808216-.12190477-1.8142297 0-3.28664801 1.51703704-3.28664801 3.38624339v.74497355c-.21034547-.04063493-.43383754-.06772487-.6573296-.06772487-1.81422969 0-3.28664799 1.51703703-3.28664799 3.38624338v11.51322753c0 6.3525926 5.0088515 11.5132275 11.1746032 11.5132275 6.1657516 0 11.1746031-5.1606349 11.1746031-11.5132275v-6.7724868c0-1.8692063-1.4724183-3.3862434-3.2866479-3.3862434zm.6573296 10.1587302c0 4.8626455-3.8256583 8.8042328-8.5452848 8.8042328s-8.54528481-3.9415873-8.54528481-8.8042328v-11.51322753c0-.37925926.28922502-.67724867.6573296-.67724867.36810457 0 .6573296.29798941.6573296.67724867v6.77248673h2.62931841v-10.83597879c0-.37925926.289225-.67724868.6573296-.67724868s.6573296.29798942.6573296.67724868v9.48148149h2.6293184v-11.51322752c0-.37925926.289225-.67724868.6573296-.67724868.3681045 0 .6573296.29798942.6573296.67724868v11.51322752h2.6293184v-8.80423281c0-.37925926.289225-.67724868.6573296-.67724868.3681045 0 .6573296.29798942.6573296.67724868v12.08211641c-2.3269468 1.042963-3.9439776 3.4268783-3.9439776 6.2035979h2.6293184c0-2.2484656 1.7616433-4.0634921 3.9439776-4.0634921v-6.0952381c0-.3792592.289225-.6772487.6573296-.6772487.3681045 0 .6573296.2979895.6573296.6772487z" fill="#000" fill-rule="nonzero"/></g></svg>