<svg height="106" width="361" xmlns="http://www.w3.org/2000/svg"><path d="m81.56 52.79 32.63-52.79 16.31 26.4-16.31 26.39-16.32 26.39h-32.62l-16.31-26.39-16.32 26.39-16.31 26.39-16.31-26.39 32.62-52.78h32.63zm165.94-14.83c2.4 1.02 4.47 2.43 6.16 4.21s2.99 3.87 3.88 6.21c.88 2.34 1.33 4.89 1.33 7.56 0 .2603571-.004592.5158929-.012804.7647622l-.020963.4883036-.028889.4672467-.035089.44291-.03956.4152934-.042304.3843968-.043321.3502205-.082782.5847923-.104288.6320745-.17.84h-29.77c.21 1.28.6 2.45 1.15 3.49.72 1.34 1.64 2.5 2.74 3.43 1.1.94 2.37 1.65 3.78 2.12 1.43.49 2.97.73 4.58.73 2.19 0 4.18-.43 5.91-1.27 1.75-.85 3.28-2 4.55-3.41l.79-.88 6.05 6.97-.67.69c-2.35 2.4-4.93 4.19-7.66 5.31-2.75 1.12-5.82 1.69-9.13 1.69s-6.38-.57-9.12-1.69c-2.73-1.12-5.11-2.68-7.06-4.63s-3.48-4.28-4.55-6.91-1.61-5.51-1.61-8.57c0-3.05.51-5.94 1.52-8.59 1.01-2.66 2.47-5.01 4.34-6.99s4.13-3.55 6.71-4.68c2.59-1.13 5.48-1.7 8.59-1.7 2.96 0 5.67.52 8.07 1.54zm-7.99 7.4c-1.4 0-2.73.21-3.95.61-1.21.4-2.29.99-3.2 1.74-.92.75-1.71 1.69-2.36 2.78-.45.76-.81 1.6-1.09 2.51l20.237-.001-.081402-.3764344c-.183149-.7695044-.451312-1.5054227-.785598-2.1825656-.54-1.08-1.24-2-2.08-2.75-.84-.74-1.83-1.32-2.95-1.72-1.14-.4-2.4-.61-3.74-.61zm-40.28 33.88-26.15-35.54v35.54h-9.96v-52.79h8.49l26.16 35.47v-35.47h9.88v52.79zm106.51 0-9.15-26.95-9.16 26.95h-8.9l-13.65-41.87h10.16l8.29 26.97 8.8-26.97h8.91l8.8 26.97 8.29-26.97h10.16l-13.65 41.87zm42.9.01c-1.68-.62-3.12-1.54-4.27-2.73-1.14-1.17-2.04-2.63-2.67-4.34-.62-1.68-.93-3.6-.93-5.7v-20.64h-5.97v-8.46h5.97v-10.92h9.72v10.92h10.22v8.46h-10.22v19.7c0 1.96.43 3.37 1.26 4.21.84.84 2.23 1.27 4.13 1.27.36 0 .97-.06 1.81-.18.42-.06.92-.23 1.52-.5l1.49-.68v9.3l-.66.26c-.67.27-1.28.46-1.93.6-1.15.23-2.46.36-3.88.36-2.06 0-3.94-.31-5.59-.93z" fill="#333"/></svg>